#!OML:ASF F:\VICON\USERDATA\INSTALL\rory3\rory3.ASF
:FULLY-SPECIFIED
:DEGREES
92
root -4.18884 15.8613 14.2883 227.873 -1.36911 -180.302
lowerback 16.591 3.68558 11.3432
upperback 1.71472 6.1942 8.66326
thorax -7.15671 2.17905 1.72062
lowerneck -15.0791 -10.4057 -13.2953
upperneck 10.2287 -13.2038 12.5756
head 7.34579 -5.90784 4.67007
rclavicle -1.08139e-013 -7.4743e-014
rhumerus 32.9223 2.02341 -49.2402
rradius 24.8626
rwrist 20.1279
rhand -30.713 -62.0259
rfingers 7.12502
rthumb -4.006 91.968
lclavicle -1.08139e-013 -7.4743e-014
lhumerus 28.0112 17.3798 -17.6085
lradius 29.7172
lwrist 2.15348
lhand -42.5181 -53.033
lfingers 7.12502
lthumb -15.3942 -23.6262
rfemur -87.8874 0.469939 24.1933
rtibia 56.2183
rfoot -13.9159 -14.8736
rtoes 9.5217
lfemur -45.8757 -9.70969 -11.1256
ltibia 37.8893
lfoot -45.797 32.953
ltoes 4.32076
93
root -4.15173 15.8256 14.1863 228.327 -1.19408 -180.342
lowerback 18.793 3.48666 11.717
upperback 1.35201 6.43329 8.68216
thorax -8.73826 2.1799 1.39412
lowerneck -15.3662 -10.304 -12.9962
upperneck 10.1941 -13.0424 12.3489
head 7.3238 -5.82534 4.5636
rclavicle -5.08889e-014 -9.54166e-015
rhumerus 32.7936 2.54929 -49.0296
rradius 25.2194
rwrist 19.8808
rhand -31.9791 -61.1785
rfingers 7.12502
rthumb -5.22857 91.094
lclavicle -5.08889e-014 -9.54166e-015
lhumerus 29.8385 16.9139 -17.5631
lradius 29.7144
lwrist 1.31071
lhand -42.1942 -55.0159
lfingers 7.12502
lthumb -15.0823 -25.5853
rfemur -88.3865 0.676495 24.177
rtibia 56.777
rfoot -14.1873 -15.0229
rtoes 8.33247
lfemur -45.9021 -9.43382 -11.1957
ltibia 37.9204
lfoot -45.7521 32.6829
ltoes 3.59166
94
root -4.11011 15.7763 14.0905 229.248 -0.839532 -180.623
lowerback 19.6585 3.38083 11.7909
upperback 1.45983 6.43438 8.60556
thorax -9.08003 2.15572 1.23296
lowerneck -15.8015 -10.2371 -12.5293
upperneck 9.70848 -12.8926 12.1608
head 7.17542 -5.73758 4.43939
rclavicle 1.90833e-014 -2.22639e-014
rhumerus 33.0427 2.06133 -49.4759
rradius 25.7111
rwrist 20.49
rhand -32.3835 -61.4202
rfingers 7.12502
rthumb -5.61898 91.3257
lclavicle 1.90833e-014 -2.22639e-014
lhumerus 31.4721 17.1346 -17.6124
lradius 29.7508
lwrist 0.719624
lhand -42.1996 -54.1044
lfingers 7.12502
lthumb -15.0875 -24.6743
rfemur -89.4852 0.913687 23.7181
rtibia 57.3829
rfoot -14.3031 -15.2665
rtoes 6.15534
lfemur -46.4645 -9.15741 -11.5009
ltibia 37.8926
lfoot -45.7251 32.4496
ltoes 3.36809
95
root -4.06732 15.7274 13.9956 230.322 -0.744781 -180.932
lowerback 19.7894 3.29715 12.0598
upperback 1.89739 6.28554 8.6323
thorax -8.63312 2.08734 1.14953
lowerneck -16.3348 -10.2818 -12.2258
upperneck 8.84835 -12.855 12.2499
head 6.96997 -5.69179 4.41362
rclavicle 2.54444e-014 7.95139e-015
rhumerus 33.6543 1.21265 -49.8843
rradius 26.2415
rwrist 21.3845
rhand -31.3884 -63.1041
rfingers 7.12502
rthumb -4.6582 93.0329
lclavicle 2.54444e-014 7.95139e-015
lhumerus 33.158 17.9562 -17.5072
lradius 29.6313
lwrist 0.374474
lhand -41.9488 -52.4967
lfingers 7.12502
lthumb -14.8458 -23.0485
rfemur -90.7044 1.0519 23.2923
rtibia 58.0153
rfoot -14.6985 -15.5139
rtoes 5.4645
lfemur -47.2787 -9.0372 -11.589
ltibia 37.8621
lfoot -45.3932 32.4874
ltoes 2.64742
96
root -4.03175 15.6977 13.8723 230.582 -0.875695 -180.992
lowerback 20.8946 2.94144 12.8507
upperback 2.44056 5.99208 8.79436
thorax -8.56384 1.88346 0.9427
lowerneck -16.796 -10.2043 -12.1948
upperneck 8.03029 -12.6311 12.4444
head 6.76923 -5.56716 4.49469
rclavicle 3.18055e-015 -6.36111e-015
rhumerus 35.311 1.48973 -49.3624
rradius 26.0902
rwrist 21.1145
rhand -31.8848 -62.8743
rfingers 7.12502
rthumb -5.1375 92.792
lclavicle 3.18055e-015 -6.36111e-015
lhumerus 34.4055 18.3071 -17.8509
lradius 29.5434
lwrist 0.381389
lhand -41.6151 -51.9192
lfingers 7.12502
lthumb -14.5243 -22.4476
rfemur -90.8627 1.15402 23.2634
rtibia 58.6644
rfoot -15.4247 -15.6922
rtoes 5.28818
lfemur -47.0346 -9.01211 -11.4862
ltibia 37.8219
lfoot -45.1853 32.3467
ltoes 1.45331
97
root -3.99397 15.6575 13.7534 231.251 -0.85184 -181.182
lowerback 22.2279 2.6801 13.3466
upperback 2.47193 5.96906 8.84917
thorax -9.20616 1.79436 0.705314
lowerneck -17.3496 -10.1085 -11.9028
upperneck 7.65583 -12.5134 12.365
head 6.69976 -5.55801 4.41849
rclavicle 7.63333e-014 7.39479e-014
rhumerus 36.1891 1.8583 -48.7515
rradius 26.094
rwrist 20.6426
rhand -33.2272 -61.9208
rfingers 7.12502
rthumb -6.4336 91.8031
lclavicle 7.63333e-014 7.39479e-014
lhumerus 35.9242 18.0444 -18.1676
lradius 29.7907
lwrist 0.532864
lhand -41.5575 -49.7978
lfingers 7.12502
lthumb -14.4688 -20.3222
rfemur -91.5559 1.31718 22.8838
rtibia 59.3227
rfoot -16.1624 -15.8157
rtoes 6.88941
lfemur -47.2593 -8.92301 -11.5187
ltibia 37.7589
lfoot -44.672 32.4623
ltoes 0.100309
98
root -3.95095 15.5908 13.6429 232.507 -0.358873 -181.667
lowerback 22.6825 2.6813 12.7155
upperback 2.60169 5.86751 9.20913
thorax -9.4227 1.75149 1.46704
lowerneck -17.7341 -10.0139 -12.2499
upperneck 6.98167 -12.171 12.2831
head 6.51825 -5.39478 4.49005
rclavicle -1.27222e-014 -2.8625e-014
rhumerus 37.5401 2.38583 -47.6274
rradius 26.4147
rwrist 20.1091
rhand -31.5672 -63.6089
rfingers 7.12502
rthumb -4.83082 93.5338
lclavicle -1.27222e-014 -2.8625e-014
lhumerus 37.012 18.7589 -16.581
lradius 30.213
lwrist -0.763196
lhand -41.0662 -47.2953
lfingers 7.12502
lthumb -13.9954 -17.7864
rfemur -92.9789 1.55577 21.9218
rtibia 59.985
rfoot -16.5604 -16.1822
rtoes 7.12474
lfemur -48.2377 -8.72406 -12.0343
ltibia 37.8778
lfoot -44.1808 32.5459
ltoes -0.391381
99
root -3.91037 15.5452 13.4989 232.65 0.244635 -181.964
lowerback 24.4705 2.67393 12.4684
upperback 2.94779 5.99324 9.44777
thorax -10.0347 1.75406 1.79324
lowerneck -18.3369 -10.0336 -12.3233
upperneck 6.36977 -12.0217 12.1845
head 6.39687 -5.30515 4.47885
rclavicle 1.27222e-014 -8.11041e-014
rhumerus 38.6952 2.29312 -46.7654
rradius 26.6393
rwrist 19.7672
rhand -33.513 -62.4232
rfingers 7.12502
rthumb -6.70945 92.2969
lclavicle 1.27222e-014 -8.11041e-014
lhumerus 38.7316 19.3451 -15.6954
lradius 30.3781
lwrist -0.854638
lhand -40.4904 -48.2947
lfingers 7.12502
lthumb -13.4405 -18.7483
rfemur -92.9573 1.83479 21.3636
rtibia 60.655
rfoot -16.8248 -16.8541
rtoes 3.55031
lfemur -47.7217 -8.51976 -12.7197
ltibia 37.9293
lfoot -44.5538 31.702
ltoes 0.79559
100
root -3.85429 15.4639 13.4202 235.415 0.123516 -182.572
lowerback 23.3427 2.80228 12.0569
upperback 2.73435 5.93291 9.83804
thorax -9.77161 1.77377 2.50729
lowerneck -19.2702 -10.0256 -12.2641
upperneck 5.85098 -11.8294 12.0965
head 6.34448 -5.17261 4.44794
rclavicle 4.13472e-014 2.06736e-014
rhumerus 40.0262 1.96364 -46.1334
rradius 26.9446
rwrist 19.4221
rhand -34.1406 -62.4181
rfingers 7.12502
rthumb -7.31531 92.2717
lclavicle 4.13472e-014 2.06736e-014
lhumerus 40.5272 20.3587 -14.0059
lradius 30.3933
lwrist -2.03595
lhand -40.786 -51.9559
lfingers 7.12502
lthumb -13.7254 -22.4286
rfemur -96.0396 1.61915 20.9517
rtibia 61.2728
rfoot -17.0861 -17.2081
rtoes 4.36286
lfemur -50.7293 -8.49163 -12.4594
ltibia 38.1936
lfoot -43.7378 31.5518
ltoes 0.704312
101
root -3.81199 15.4318 13.2632 235.586 0.341862 -183.045
lowerback 24.9361 2.59978 12.2406
upperback 3.16247 5.83651 10.0867
thorax -10.1396 1.66528 2.69286
lowerneck -20.3224 -10.0115 -12.0782
upperneck 5.43816 -11.6319 11.8774
head 6.32473 -5.03668 4.35337
rclavicle -6.36111e-015 -7.55382e-014
rhumerus 41.3586 1.43041 -45.6063
rradius 27.4853
rwrist 19.2234
rhand -33.0708 -63.8116
rfingers 7.12502
rthumb -6.2826 93.6984
lclavicle -6.36111e-015 -7.55382e-014
lhumerus 42.0811 21.1292 -13.0197
lradius 30.3148
lwrist -2.99625
lhand -41.3437 -53.4868
lfingers 7.12502
lthumb -14.2628 -23.9966
rfemur -96.0459 1.51911 20.4284
rtibia 61.9886
rfoot -18.2518 -17.2272
rtoes 6.98278
lfemur -50.3366 -8.66943 -12.9051
ltibia 38.2302
lfoot -43.2201 31.4892
ltoes 0.238428
102
root -3.76846 15.363 13.1297 236.98 0.718592 -183.448
lowerback 25.2686 2.66385 12.0145
upperback 3.29437 5.87081 10.3755
thorax -10.2212 1.67596 3.13425
lowerneck -21.0931 -10.0213 -12.1783
upperneck 4.82085 -11.4332 11.8858
head 6.22737 -4.8993 4.38856
rclavicle -3.81667e-014 -1.26825e-013
rhumerus 42.7128 0.969176 -45.0192
rradius 27.8976
rwrist 18.9949
rhand -32.1002 -65.5595
rfingers 7.12502
rthumb -5.34546 95.4721
lclavicle -3.81667e-014 -1.26825e-013
lhumerus 43.7165 21.9061 -11.7078
lradius 30.2447
lwrist -4.45909
lhand -42.0361 -54.3423
lfingers 7.12502
lthumb -14.9299 -24.9004
rfemur -97.4533 1.54439 19.8531
rtibia 62.6669
rfoot -19.0037 -17.3054
rtoes 7.29194
lfemur -51.4896 -8.53339 -13.2242
ltibia 38.4279
lfoot -42.3807 31.6556
ltoes -0.457729
103
root -3.72733 15.3342 12.9656 237.222 0.774572 -183.943
lowerback 26.9587 2.39778 12.4372
upperback 3.55922 5.80762 10.6896
thorax -10.7928 1.55922 3.27853
lowerneck -21.311 -9.98652 -12.4556
upperneck 3.53651 -11.1475 12.1253
head 5.84891 -4.72175 4.56178
rclavicle -4.45278e-014 -9.38264e-014
rhumerus 44.0831 0.446259 -44.607
rradius 28.2686
rwrist 18.8232
rhand -32.1018 -66.481
rfingers 7.12502
rthumb -5.34702 96.3935
lclavicle -4.45278e-014 -9.38264e-014
lhumerus 45.0891 22.2638 -11.1353
lradius 30.4546
lwrist -5.16609
lhand -43.0939 -54.5124
lfingers 7.12502
lthumb -15.9488 -25.1491
rfemur -97.3859 1.26472 19.652
rtibia 63.3095
rfoot -20.0476 -17.3302
rtoes 7.66912
lfemur -51.2138 -8.80635 -13.4998
ltibia 38.3896
lfoot -41.1282 31.8036
ltoes -1.72094
104
root -3.68552 15.2819 12.8306 238.313 0.636624 -184.546
lowerback 27.7955 2.18356 12.9583
upperback 3.2719 5.81207 11.1435
thorax -10.8727 1.4392 3.19946
lowerneck -22.493 -10.0416 -12.2429
upperneck 3.53368 -11.0304 11.6607
head 5.96271 -4.63304 4.36856
rclavicle -2.54444e-014 -8.82604e-014
rhumerus 45.3044 -0.345761 -44.3329
rradius 28.7263
rwrist 18.8599
rhand -31.1728 -67.9335
rfingers 7.12502
rthumb -4.45001 97.8668
lclavicle -2.54444e-014 -8.82604e-014
lhumerus 46.291 22.1579 -11.2257
lradius 31.0559
lwrist -4.88756
lhand -44.1896 -51.6735
lfingers 7.12502
lthumb -17.0037 -22.3977
rfemur -98.3476 0.772738 19.6089
rtibia 63.8931
rfoot -20.7832 -17.3662
rtoes 7.31656
lfemur -51.6335 -9.09006 -13.4289
ltibia 38.4286
lfoot -42.9159 26.5334
ltoes 5.27375
